<svg xmlns="http://www.w3.org/2000/svg" width="1024" height="500" viewBox="0 0 1024 500">
  <defs>
    <linearGradient id="background" x1="0" y1="0" x2="1" y2="1">
      <stop offset="0" stop-color="#0e0f13"/>
      <stop offset="1" stop-color="#17142b"/>
    </linearGradient>
    <linearGradient id="accent" x1="0" y1="0" x2="1" y2="1">
      <stop offset="0" stop-color="#9185ff"/>
      <stop offset="1" stop-color="#6857ed"/>
    </linearGradient>
    <radialGradient id="glow">
      <stop offset="0" stop-color="#7b6cf6" stop-opacity=".35"/>
      <stop offset="1" stop-color="#7b6cf6" stop-opacity="0"/>
    </radialGradient>
    <filter id="shadow" x="-20%" y="-20%" width="140%" height="140%">
      <feDropShadow dx="0" dy="14" stdDeviation="18" flood-color="#000" flood-opacity=".38"/>
    </filter>
  </defs>

  <rect width="1024" height="500" fill="url(#background)"/>
  <circle cx="790" cy="245" r="310" fill="url(#glow)"/>

  <g transform="translate(82 105)">
    <rect width="112" height="112" rx="28" fill="url(#accent)"/>
    <path d="M46 31 84 56 46 81Z" fill="#fff"/>
  </g>
  <text x="82" y="272" fill="#fff" font-family="Inter,Arial,sans-serif" font-size="58" font-weight="700">IPTVS Player</text>
  <text x="85" y="322" fill="#b5b3c2" font-family="Inter,Arial,sans-serif" font-size="25">Your sources. One focused player.</text>
  <text x="85" y="367" fill="#8f8b9d" font-family="Inter,Arial,sans-serif" font-size="18">PHONE  •  ANDROID TV</text>

  <g filter="url(#shadow)">
    <g transform="translate(624 48) rotate(3 150 202)">
      <rect width="300" height="404" rx="24" fill="#111219" stroke="#302c4c" stroke-width="2"/>
      <rect x="18" y="20" width="264" height="116" rx="14" fill="#26213f"/>
      <rect x="34" y="38" width="80" height="80" rx="12" fill="url(#accent)"/>
      <path d="M66 57 92 78 66 99Z" fill="#fff"/>
      <rect x="132" y="46" width="116" height="12" rx="6" fill="#e7e9ee"/>
      <rect x="132" y="72" width="86" height="9" rx="4" fill="#858190"/>
      <rect x="132" y="94" width="102" height="9" rx="4" fill="#585465"/>
      <g transform="translate(18 154)">
        <rect width="264" height="64" rx="12" fill="#1b1c25" stroke="#7b6cf6" stroke-width="2"/>
        <circle cx="32" cy="32" r="16" fill="#7b6cf6"/>
        <rect x="60" y="18" width="132" height="10" rx="5" fill="#e7e9ee"/>
        <rect x="60" y="38" width="92" height="8" rx="4" fill="#777382"/>
      </g>
      <g transform="translate(18 228)">
        <rect width="264" height="64" rx="12" fill="#1b1c25"/>
        <circle cx="32" cy="32" r="16" fill="#343241"/>
        <rect x="60" y="18" width="108" height="10" rx="5" fill="#d2d2d8"/>
        <rect x="60" y="38" width="144" height="8" rx="4" fill="#646170"/>
      </g>
      <g transform="translate(18 302)">
        <rect width="264" height="64" rx="12" fill="#1b1c25"/>
        <circle cx="32" cy="32" r="16" fill="#343241"/>
        <rect x="60" y="18" width="142" height="10" rx="5" fill="#d2d2d8"/>
        <rect x="60" y="38" width="76" height="8" rx="4" fill="#646170"/>
      </g>
    </g>
  </g>
</svg>
